<svg width="95" height="44" viewBox="0 0 95 44" fill="none" xmlns="http://www.w3.org/2000/svg">
<path fill-rule="evenodd" clip-rule="evenodd" d="M94.7744 30.9906C94.6652 30.9036 94.5383 30.8784 94.4361 30.8784C94.2334 30.8784 94.0236 30.9737 93.8688 31.1291L93.8417 31.1554L93.8225 31.1868C91.7063 34.5119 89.9317 36.7308 88.3801 38.1154C86.831 39.4979 85.531 40.0258 84.354 40.0258C83.6892 40.0258 83.3078 39.8338 83.0813 39.5563C82.8434 39.265 82.7218 38.8149 82.7218 38.1911C82.7218 37.214 83.0094 36.0578 83.4645 34.8487C83.9016 33.687 84.4852 32.497 85.0884 31.4019C87.3598 30.7287 90.0193 29.515 91.7544 27.9838L91.757 27.9818L91.7595 27.9795C92.3793 27.4108 92.9073 26.8195 93.2823 26.2237C93.6565 25.6291 93.8908 25.0104 93.8908 24.3945C93.8908 23.93 93.7596 23.4446 93.4048 23.0739C93.0471 22.6995 92.506 22.4891 91.7831 22.4891C90.3513 22.4891 88.5297 23.1706 86.7768 24.3266C85.0159 25.4875 83.2863 27.1515 82.0447 29.1689C81.6204 29.852 81.2564 30.5707 80.9568 31.3169C78.9167 34.3647 77.1735 36.5499 75.6036 37.972C74.0288 39.3982 72.6622 40.0256 71.3736 40.0256C70.7727 40.0256 70.3987 39.8297 70.1656 39.5394C69.9222 39.2365 69.7917 38.7804 69.7917 38.1911C69.7917 37.0453 70.1758 35.6669 70.8132 34.1738C71.4483 32.6858 72.323 31.11 73.2782 29.5767C74.3596 27.8414 75.4335 26.3451 76.4051 25.2869C76.8912 24.7572 77.3436 24.3466 77.7506 24.0706C78.1626 23.7911 78.4961 23.6717 78.7519 23.6717C79.0224 23.6717 79.263 23.828 79.5174 24.1899C79.7743 24.5554 79.9931 25.0571 80.2355 25.6177L80.5858 26.4261L82.1704 23.545L81.9402 23.368C81.2155 22.8105 80.2302 22.4891 79.1058 22.4891C75.2579 22.4891 71.4756 25.3706 69.3678 28.7642C68.8652 29.5761 68.4246 30.3934 68.0716 31.2363L66.4374 33.7621C65.2453 35.6139 64.2116 37.2058 63.1914 38.3372C62.1691 39.4712 61.2182 40.0762 60.2022 40.0762C59.7785 40.0762 59.49 39.9649 59.311 39.8034C59.1366 39.6462 59.0248 39.404 59.0248 39.0503C59.0248 38.5796 59.1189 38.1345 59.7848 36.927C60.4543 35.7136 61.6727 33.7786 63.8734 30.3382L63.874 30.3371L67.99 23.8549L67.8076 22.9441H61.7572L61.6668 23.0118C61.5327 23.1122 61.4311 23.2267 61.3651 23.3587C61.3068 23.4764 61.2772 23.6062 61.2787 23.7375V24.0761H63.4186L60.9766 27.9543C60.2665 29.0872 59.6357 30.1267 59.1118 31.1301L59.1097 31.1316L57.7132 33.2007C56.2938 35.3043 55.0834 37.0745 53.9297 38.3213C52.7711 39.5732 51.7318 40.2279 50.6658 40.2279C50.2931 40.2279 50.0437 40.1295 49.8906 39.9886C49.7412 39.8517 49.6398 39.6347 49.6398 39.3029C49.6398 38.9128 49.7934 38.4201 50.245 37.6407C50.6948 36.8644 51.4165 35.8427 52.5028 34.4028L54.0692 32.3309C56.1142 29.6213 56.7151 28.0341 56.7151 26.0116C56.7151 25.0302 56.5751 24.1612 56.2005 23.5273C55.809 22.8647 55.178 22.4891 54.3045 22.4891C53.143 22.4891 51.8785 23.0816 50.5544 24.0983C49.2237 25.1202 47.7927 26.6017 46.2916 28.4515L46.256 28.4955H45.7991V25.8601C45.7991 24.8951 45.619 24.1466 45.1615 23.6426C44.6965 23.1303 44.0131 22.9441 43.1862 22.9441H41.3303L41.2311 23.0431C41.064 23.2125 40.9459 23.4241 40.8893 23.6552L40.7842 24.0761H42.9842C43.6183 24.0761 43.9301 24.1893 44.0876 24.327C44.2312 24.4527 44.3133 24.6593 44.3133 25.0514C44.3133 25.4307 44.1746 25.9065 43.8792 26.5221C43.5857 27.1336 43.1532 27.8514 42.5988 28.7084L42.5978 28.7098L34.9399 40.804H39.2767L43.6739 34.0269L43.9249 33.6254C46.0401 30.5036 48.0202 28.0121 49.7773 26.3051C50.6563 25.451 51.4717 24.8008 52.2127 24.3659C52.9562 23.9296 53.6036 23.7222 54.1529 23.7222C54.4862 23.7222 54.6341 23.8005 54.7031 23.8695C54.7716 23.938 54.8251 24.0602 54.8251 24.2934C54.8251 24.636 54.6817 25.0927 54.3247 25.733C53.9706 26.3679 53.4268 27.1482 52.6716 28.1299L51.0038 30.3033C48.8641 33.1054 47.8509 35.3522 47.8509 37.5847C47.8509 38.3946 47.9799 39.308 48.3871 40.0313C48.8077 40.7785 49.5215 41.3093 50.6153 41.3093C52.1441 41.3093 53.5463 40.2941 54.849 38.8859C55.7789 37.8809 56.6927 36.6369 57.5997 35.3218C57.4911 35.9524 57.4369 36.5911 57.4378 37.2309C57.4378 38.0043 57.5262 38.9646 57.9083 39.7429C58.1018 40.1371 58.3758 40.4946 58.7604 40.7528C59.147 41.0126 59.6249 41.1578 60.2022 41.1578C61.6389 41.1578 62.8981 40.2448 64.0439 38.9786C65.1245 37.7843 66.1605 36.2112 67.1978 34.6095C67.1616 34.9768 67.1435 35.3457 67.1436 35.7148C67.1436 37.1523 67.4825 38.5128 68.1684 39.5245C68.8618 40.5475 69.9088 41.2083 71.2725 41.2083C72.775 41.2083 74.2553 40.5493 75.8354 39.2161C77.1645 38.095 78.5823 36.4817 80.1652 34.338C80.1044 34.8114 80.0738 35.2882 80.0735 35.7655C80.0735 37.1812 80.4267 38.5289 81.1189 39.5331C81.8172 40.5463 82.8628 41.2083 84.2025 41.2083C85.727 41.2083 87.2942 40.5381 89.0253 39.0071C90.7534 37.479 92.6686 35.0729 94.8995 31.5498L94.9518 31.4669V31.3687C94.9518 31.2245 94.8934 31.0857 94.7744 30.9906ZM89.2789 25.3115C89.8382 24.731 90.3635 24.291 90.8435 23.9981C91.326 23.7039 91.7411 23.5707 92.0864 23.5707C92.3759 23.5707 92.5262 23.6518 92.6093 23.7406C92.6957 23.8339 92.7586 23.9915 92.7586 24.2429C92.7586 24.6077 92.604 25.0489 92.2875 25.5451C91.9929 26.0063 91.5717 26.4927 91.0541 26.9778C91.0201 27.0099 90.985 27.0421 90.9502 27.0743L90.9484 27.0755L90.9492 27.0747C89.6459 28.2521 87.7098 29.2981 85.8626 30.0127C87.0406 28.0254 88.208 26.4243 89.2789 25.3115Z" fill="#0A121A"/>
<path fill-rule="evenodd" clip-rule="evenodd" d="M38.2788 31.4669V31.3687C38.2788 31.2245 38.2201 31.0858 38.1011 30.9906C37.9926 30.9037 37.8656 30.8784 37.7634 30.8784C37.5603 30.8784 37.3509 30.9737 37.1955 31.1292L37.1692 31.1554L37.1492 31.1868C35.0332 34.512 33.2588 36.7308 31.707 38.1154C30.1581 39.4979 28.8579 40.0259 27.6812 40.0259C27.0161 40.0259 26.6348 39.8338 26.4082 39.5563C26.1703 39.2651 26.0487 38.8149 26.0487 38.1912C26.0487 37.214 26.3363 36.0578 26.7914 34.8487C27.2285 33.687 27.8121 32.497 28.4153 31.4019C30.6867 30.7287 33.346 29.515 35.0815 27.9838L35.0837 27.9818L35.0862 27.9796C35.7065 27.4108 36.2346 26.8195 36.6096 26.2237C36.9836 25.6291 37.2175 25.0105 37.2175 24.3945C37.2175 23.93 37.0867 23.4446 36.7321 23.0739C36.3738 22.6995 35.8329 22.4891 35.1102 22.4891C33.6784 22.4891 31.8568 23.1707 30.1037 24.3266C28.3428 25.4877 26.613 27.1519 25.3712 29.1696C24.0262 31.3426 23.4006 33.6273 23.4006 35.7655C23.4006 37.1812 23.7536 38.5289 24.4458 39.5331C25.1441 40.5463 26.1899 41.2083 27.5294 41.2083C29.0539 41.2083 30.6213 40.5382 32.3528 39.0072C34.0807 37.479 35.9957 35.0729 38.2264 31.5498L38.2788 31.4669ZM32.606 25.3115C33.1651 24.731 33.6907 24.291 34.1708 23.9981C34.6529 23.7039 35.0683 23.5707 35.4133 23.5707C35.7026 23.5707 35.8533 23.6518 35.936 23.7406C36.0226 23.8339 36.0855 23.9916 36.0855 24.2429C36.0855 24.6078 35.9313 25.049 35.6144 25.5452C35.3001 26.0371 34.8422 26.558 34.2761 27.0749C32.9722 28.2523 31.0371 29.2981 29.1895 30.0127C30.3677 28.0254 31.5347 26.4243 32.606 25.3115ZM27.2084 20.5159C27.6958 19.8125 28.18 19.1134 28.6632 18.4227C31.8492 13.8659 34.8692 9.54916 38.1447 6.3674C41.4151 3.19052 44.9026 1.18267 49.0181 1.18267C50.4473 1.18267 51.9259 1.42935 53.2031 1.87158L53.518 1.98056L53.9572 0.773238L53.6121 0.670981C52.2184 0.258085 50.6194 0 49.0181 0C44.5932 0 40.8539 2.14392 37.4607 5.40757H13.7028L12.9931 6.59004H22.7783C20.2195 7.81223 18.3361 9.86347 16.9255 12.0773C15.2148 14.7616 14.1806 17.7146 13.4734 19.7862C12.7126 21.9625 12.0874 23.9681 11.513 25.8108L11.5126 25.8126C10.2843 29.7526 9.29434 32.9217 7.70957 35.4991C6.13681 38.0571 3.97171 40.0395 0.369712 41.5689L0 41.7257L0.847384 43.0439L1.12747 42.8805C2.31625 42.1871 3.44087 41.7047 4.78487 41.3051C10.2692 39.6739 14.6479 36.2208 18.4467 32.0501C21.6651 28.5165 24.4841 24.4476 27.2084 20.5159ZM7.64051 38.2849C9.62861 36.5196 11.2382 34.5478 12.681 32.0916C14.2782 29.3725 15.6709 26.0597 17.1457 21.7759C17.5364 20.6481 17.8979 19.5218 18.2501 18.4245L18.2507 18.4227C19.2918 15.18 20.2476 12.2119 21.6505 10.048C23.0372 7.9094 24.8381 6.59004 27.5901 6.59004H36.2925C33.3228 9.72312 30.5468 13.683 27.6858 17.7647L27.6744 17.7808C22.0595 25.7912 16.1091 34.2637 7.64051 38.2849Z" fill="#0A121A"/>
<path d="M86.0197 18V10.1716H87.2051L90.6272 15.6739V10.1716H91.8462V18H90.6608L87.2498 12.4978V18H86.0197Z" fill="#0A121A"/>
<path d="M80.1576 18V16.8817H81.8239V11.29H80.1576V10.1716H84.7763V11.29H83.11V16.8817H84.7763V18H80.1576Z" fill="#0A121A"/>
<path d="M72.2682 18V11.3123H69.8638V10.1716H75.9587V11.3123H73.5543V18H72.2682Z" fill="#0A121A"/>
<path d="M65.776 18V10.1716H67.0621V16.8593H70.3947V18H65.776Z" fill="#0A121A"/>
<path d="M59.9139 18V16.8817H61.5802V11.29H59.9139V10.1716H64.5326V11.29H62.8663V16.8817H64.5326V18H59.9139Z" fill="#0A121A"/>
<path d="M55.8078 18.0671C53.929 18.0671 52.8889 17.0047 52.8889 14.9693V10.1716H54.175V14.9805C54.175 16.289 54.7566 16.9264 55.8078 16.9264C56.8926 16.9264 57.4629 16.3001 57.4629 14.9805V10.1716H58.749V14.9693C58.749 17.0047 57.709 18.0671 55.8078 18.0671Z" fill="#0A121A"/>
<path d="M46.2138 18V10.1716H48.9313C50.6424 10.1716 51.5706 10.9657 51.5706 12.2406C51.5706 13.1576 51.0562 13.728 50.2398 13.9516C51.168 14.1082 51.8837 14.6562 51.8837 15.7633C51.8837 17.1501 50.8996 18 49.032 18H46.2138ZM47.4999 16.9376H48.9984C50.0497 16.9376 50.5753 16.4903 50.5753 15.7633C50.5753 14.9805 50.0049 14.5555 48.9984 14.5555H47.4999V16.9376ZM47.4999 13.4931H48.9425C49.826 13.4931 50.2957 13.0681 50.2957 12.3636C50.2957 11.659 49.826 11.2341 48.9425 11.2341H47.4999V13.4931Z" fill="#0A121A"/>
</svg>
